<svg width="169" height="25" viewBox="0 0 169 25" fill="none" xmlns="http://www.w3.org/2000/svg">
<path d="M11.8009 6.71847H8.66198C9.14776 7.31635 9.48407 8.02633 9.70827 8.81105H11.8009C11.913 8.81105 12.0251 8.88579 12.0998 8.96052C12.1745 9.03526 12.2493 9.14736 12.2493 9.25946V10.1563C12.2493 10.3058 12.1745 10.4179 12.0998 10.4926C12.0251 10.5673 11.913 10.6047 11.8009 10.6047H9.85774C9.78301 12.1368 9.25986 13.3699 8.28831 14.3041C7.31675 15.2383 6.08362 15.6867 4.58892 15.6867H4.10314L10.1193 20.8808C10.2688 21.0302 10.3435 21.1797 10.2688 21.3665C10.1941 21.5908 10.0446 21.6655 9.82038 21.6655H7.54096C7.42885 21.6655 7.31675 21.6281 7.24202 21.5534L0.441122 15.6867C0.329019 15.6119 0.291652 15.4998 0.291652 15.3504V14.0425C0.291652 13.9304 0.329019 13.8183 0.403754 13.7436C0.478489 13.6688 0.590592 13.5941 0.740062 13.5941H4.21524C5.14943 13.5941 5.89678 13.3325 6.49466 12.8094C7.05518 12.2862 7.39149 11.5389 7.46622 10.6047H0.740062C0.590592 10.6047 0.478489 10.5673 0.403754 10.4926C0.329019 10.4179 0.291652 10.3058 0.291652 10.1563V9.25946C0.291652 9.14736 0.329019 9.03526 0.403754 8.96052C0.478489 8.88579 0.590592 8.81105 0.740062 8.81105H7.20465C6.98044 8.25054 6.60677 7.80213 6.08362 7.50319C5.56048 7.20425 4.9626 7.01741 4.25261 7.01741H0.740062C0.590592 7.01741 0.478489 6.98004 0.403754 6.90531C0.329019 6.83057 0.291652 6.71847 0.291652 6.569V5.37324C0.291652 5.26113 0.329019 5.14903 0.403754 5.0743C0.478489 4.99956 0.590592 4.92483 0.740062 4.92483H11.8009C11.913 4.92483 12.0251 4.99956 12.0998 5.0743C12.1745 5.14903 12.2493 5.26113 12.2493 5.37324V6.27006C12.2493 6.41953 12.1745 6.53163 12.0998 6.60637C12.0251 6.6811 11.913 6.71847 11.8009 6.71847Z" fill="#E5DFD9"/>
<path d="M15.8417 17.6493V15.9863L20.483 6.60983H23.3204L18.773 15.9957L18.4348 15.3005H26.9281V17.6493H15.8417ZM22.3996 20.5148V15.3005L22.7003 11.3075H25.1336V20.5148H22.3996ZM33.2033 20.6933C31.9882 20.6933 30.986 20.5399 30.1968 20.233C29.4139 19.9198 28.8314 19.4907 28.4493 18.9458C28.0672 18.3946 27.8762 17.762 27.8762 17.048C27.8762 16.2212 28.1236 15.5009 28.6184 14.8871C29.1132 14.267 29.8241 13.8035 30.7511 13.4966L32.7241 14.2482C32.0289 14.4862 31.5184 14.8276 31.1927 15.2723C30.8733 15.717 30.7136 16.193 30.7136 16.7004C30.7136 17.3016 30.9202 17.7683 31.3336 18.1002C31.747 18.426 32.3734 18.5888 33.2127 18.5888C34.0082 18.5888 34.6001 18.4353 34.9884 18.1284C35.383 17.8215 35.5803 17.3987 35.5803 16.8601C35.5803 16.4968 35.4957 16.1867 35.3266 15.9299C35.1575 15.6669 34.8631 15.432 34.4435 15.2253C34.0238 15.0186 33.4288 14.815 32.6584 14.6146C31.556 14.3202 30.6822 13.9663 30.0371 13.5529C29.3982 13.1333 28.941 12.651 28.6654 12.1061C28.3898 11.5611 28.252 10.9504 28.252 10.274C28.252 9.50984 28.4399 8.83964 28.8157 8.2634C29.1978 7.68716 29.7646 7.23932 30.5163 6.91988C31.2679 6.59417 32.2011 6.43132 33.316 6.43132C34.8068 6.43132 35.9655 6.7445 36.7923 7.37085C37.6191 7.9972 38.0325 8.8553 38.0325 9.94515C38.0325 10.678 37.8352 11.3513 37.4406 11.9651C37.046 12.5727 36.3789 13.0675 35.4394 13.4496L33.6167 12.6792C34.2493 12.3472 34.7065 11.9871 34.9884 11.5987C35.2765 11.2104 35.4206 10.7594 35.4206 10.2458C35.4206 9.69461 35.2358 9.27183 34.8663 8.97744C34.503 8.68306 33.9768 8.53586 33.2879 8.53586C32.5488 8.53586 32.0007 8.68932 31.6437 8.99623C31.2867 9.30314 31.1082 9.69775 31.1082 10.18C31.1082 10.5308 31.1833 10.8377 31.3336 11.1008C31.484 11.3576 31.7721 11.5956 32.198 11.8148C32.6239 12.034 33.244 12.2564 34.0583 12.4819C35.1669 12.7951 36.0375 13.1521 36.6702 13.5529C37.3028 13.9475 37.7506 14.4048 38.0137 14.9246C38.2767 15.4383 38.4083 16.0302 38.4083 16.7004C38.4083 17.4645 38.2141 18.1504 37.8258 18.7579C37.4437 19.3592 36.8643 19.8321 36.0876 20.1766C35.3172 20.5211 34.3558 20.6933 33.2033 20.6933ZM43.1426 20.6933C42.6415 20.6933 42.153 20.662 41.6769 20.5994C41.2072 20.5368 40.7719 20.4271 40.371 20.2706V17.9405C40.7781 18.0846 41.2041 18.1942 41.6488 18.2694C42.0935 18.3383 42.5413 18.3727 42.9923 18.3727C43.8504 18.3727 44.5582 18.213 45.1156 17.8936C45.6793 17.5741 46.099 17.0856 46.3746 16.4279C46.6564 15.764 46.7974 14.9246 46.7974 13.91V12.651C46.7974 11.8681 46.741 11.2166 46.6283 10.6968C46.5155 10.1769 46.3527 9.76664 46.1397 9.466C45.933 9.16535 45.6825 8.95239 45.3881 8.82712C45.0937 8.69558 44.7649 8.62982 44.4016 8.62982C44.0132 8.62982 43.6687 8.70498 43.3681 8.8553C43.0674 8.99936 42.8294 9.22485 42.6541 9.53176C42.4849 9.83241 42.4004 10.2207 42.4004 10.6968C42.4004 11.1791 42.4912 11.5737 42.6728 11.8806C42.8545 12.1875 43.1113 12.4161 43.4433 12.5664C43.7752 12.7105 44.1604 12.7825 44.5989 12.7825C44.9183 12.7825 45.2378 12.7449 45.5572 12.6698C45.8829 12.5884 46.1929 12.4662 46.4873 12.3034C46.7817 12.1343 47.051 11.9182 47.2953 11.6551V13.7878C46.9446 14.1574 46.4685 14.4486 45.8672 14.6616C45.2722 14.8683 44.6552 14.9716 44.0164 14.9716C43.1896 14.9716 42.4442 14.8244 41.7803 14.53C41.1226 14.2357 40.5996 13.7816 40.2113 13.1677C39.8292 12.5476 39.6382 11.7522 39.6382 10.7813C39.6382 9.87312 39.8355 9.09332 40.2301 8.44191C40.6247 7.79051 41.179 7.29256 41.893 6.94806C42.6071 6.60357 43.4464 6.43132 44.411 6.43132C45.2002 6.43132 45.9205 6.55973 46.5719 6.81653C47.2296 7.06707 47.7964 7.46167 48.2724 8.00033C48.7485 8.53273 49.1149 9.22172 49.3717 10.0673C49.6285 10.9129 49.7569 11.9276 49.7569 13.1114C49.7569 14.815 49.4969 16.2306 48.9771 17.358C48.4572 18.4792 47.7024 19.3154 46.7128 19.8666C45.7294 20.4177 44.5394 20.6933 43.1426 20.6933ZM54.9234 20.6933C54.4223 20.6933 53.9338 20.662 53.4577 20.5994C52.988 20.5368 52.5527 20.4271 52.1518 20.2706V17.9405C52.5589 18.0846 52.9848 18.1942 53.4295 18.2694C53.8743 18.3383 54.3221 18.3727 54.7731 18.3727C55.6312 18.3727 56.339 18.213 56.8964 17.8936C57.4601 17.5741 57.8798 17.0856 58.1554 16.4279C58.4372 15.764 58.5782 14.9246 58.5782 13.91V12.651C58.5782 11.8681 58.5218 11.2166 58.409 10.6968C58.2963 10.1769 58.1334 9.76664 57.9205 9.466C57.7138 9.16535 57.4633 8.95239 57.1689 8.82712C56.8745 8.69558 56.5456 8.62982 56.1824 8.62982C55.794 8.62982 55.4495 8.70498 55.1489 8.8553C54.8482 8.99936 54.6102 9.22485 54.4348 9.53176C54.2657 9.83241 54.1812 10.2207 54.1812 10.6968C54.1812 11.1791 54.272 11.5737 54.4536 11.8806C54.6353 12.1875 54.8921 12.4161 55.224 12.5664C55.556 12.7105 55.9412 12.7825 56.3797 12.7825C56.6991 12.7825 57.0185 12.7449 57.338 12.6698C57.6637 12.5884 57.9737 12.4662 58.2681 12.3034C58.5625 12.1343 58.8318 11.9182 59.0761 11.6551V13.7878C58.7253 14.1574 58.2493 14.4486 57.648 14.6616C57.053 14.8683 56.436 14.9716 55.7972 14.9716C54.9704 14.9716 54.225 14.8244 53.5611 14.53C52.9034 14.2357 52.3804 13.7816 51.9921 13.1677C51.61 12.5476 51.419 11.7522 51.419 10.7813C51.419 9.87312 51.6163 9.09332 52.0109 8.44191C52.4055 7.79051 52.9598 7.29256 53.6738 6.94806C54.3879 6.60357 55.2272 6.43132 56.1918 6.43132C56.981 6.43132 57.7013 6.55973 58.3527 6.81653C59.0103 7.06707 59.5772 7.46167 60.0532 8.00033C60.5292 8.53273 60.8957 9.22172 61.1525 10.0673C61.4093 10.9129 61.5377 11.9276 61.5377 13.1114C61.5377 14.815 61.2777 16.2306 60.7579 17.358C60.238 18.4792 59.4832 19.3154 58.4936 19.8666C57.5102 20.4177 56.3202 20.6933 54.9234 20.6933Z" fill="#E5DFD9"/>
<path d="M70.7266 21.6284C70.0649 21.6284 69.5089 21.5348 69.0585 21.3474C68.6121 21.1601 68.2753 20.893 68.0481 20.5463C67.8209 20.1995 67.7073 19.783 67.7073 19.2967C67.7073 18.7267 67.8647 18.2345 68.1796 17.8199C68.4985 17.4054 68.9429 17.0985 69.5129 16.8992L70.2244 17.2041C69.7062 17.3635 69.3116 17.6226 69.0406 17.9814C68.7695 18.3361 68.634 18.7447 68.634 19.207C68.634 19.7491 68.8094 20.1656 69.1601 20.4566C69.5149 20.7436 70.039 20.8871 70.7326 20.8871C71.3743 20.8871 71.8626 20.7476 72.1974 20.4685C72.5362 20.1895 72.7056 19.7969 72.7056 19.2907C72.7056 18.9679 72.6418 18.6948 72.5143 18.4716C72.3867 18.2484 72.1715 18.0571 71.8685 17.8977C71.5656 17.7382 71.1531 17.5927 70.6309 17.4612C69.9812 17.2978 69.4611 17.0965 69.0705 16.8573C68.6838 16.6142 68.4048 16.3292 68.2334 16.0024C68.062 15.6715 67.9763 15.2909 67.9763 14.8604C67.9763 14.3901 68.082 13.9835 68.2932 13.6407C68.5085 13.298 68.8174 13.0309 69.2199 12.8396C69.6265 12.6483 70.1187 12.5526 70.6967 12.5526C71.5337 12.5526 72.1874 12.7519 72.6577 13.1505C73.1321 13.5491 73.3692 14.0951 73.3692 14.7887C73.3692 15.3148 73.2317 15.7772 72.9567 16.1758C72.6817 16.5704 72.2671 16.8832 71.7131 17.1144L71.0435 16.8155C71.5576 16.5803 71.9283 16.3113 72.1555 16.0083C72.3867 15.7014 72.5023 15.3188 72.5023 14.8604C72.5023 14.3502 72.3429 13.9616 72.024 13.6946C71.7051 13.4275 71.2587 13.294 70.6847 13.294C70.0988 13.294 69.6564 13.4335 69.3574 13.7125C69.0625 13.9875 68.915 14.3602 68.915 14.8305C68.915 15.1454 68.9748 15.4184 69.0944 15.6496C69.2179 15.8768 69.4312 16.0761 69.7341 16.2475C70.037 16.4149 70.4595 16.5684 71.0016 16.7079C71.6513 16.8793 72.1675 17.0805 72.5501 17.3117C72.9368 17.5429 73.2138 17.8159 73.3812 18.1308C73.5526 18.4457 73.6383 18.8144 73.6383 19.2369C73.6383 19.7112 73.5267 20.1277 73.3035 20.4865C73.0802 20.8452 72.7514 21.1262 72.317 21.3295C71.8865 21.5288 71.3564 21.6284 70.7266 21.6284ZM76.5455 21.6284C76.2704 21.6284 75.9974 21.6065 75.7264 21.5627C75.4553 21.5228 75.2042 21.457 74.973 21.3654V20.5642C75.2042 20.6559 75.4553 20.7236 75.7264 20.7675C75.9974 20.8113 76.2605 20.8332 76.5156 20.8332C77.1214 20.8332 77.6276 20.7037 78.0342 20.4446C78.4407 20.1816 78.7457 19.771 78.9489 19.213C79.1562 18.655 79.2598 17.9295 79.2598 17.0367V16.6959C79.2598 16.0502 79.21 15.5101 79.1104 15.0757C79.0147 14.6412 78.8752 14.2964 78.6919 14.0413C78.5125 13.7822 78.2953 13.5969 78.0402 13.4853C77.7891 13.3737 77.5061 13.3179 77.1912 13.3179C76.8604 13.3179 76.5654 13.3817 76.3063 13.5092C76.0512 13.6368 75.8479 13.836 75.6965 14.1071C75.549 14.3741 75.4753 14.7189 75.4753 15.1414C75.4753 15.5719 75.553 15.9246 75.7084 16.1997C75.8679 16.4707 76.0911 16.67 76.3781 16.7976C76.665 16.9251 77.0018 16.9889 77.3885 16.9889C77.6276 16.9889 77.8728 16.959 78.1239 16.8992C78.379 16.8394 78.6221 16.7457 78.8533 16.6182C79.0885 16.4867 79.2917 16.3153 79.4631 16.104V16.9171C79.22 17.1762 78.8951 17.3815 78.4886 17.5329C78.086 17.6804 77.6695 17.7542 77.239 17.7542C76.7169 17.7542 76.2545 17.6605 75.8519 17.4732C75.4494 17.2858 75.1325 17.0028 74.9013 16.6242C74.6741 16.2415 74.5605 15.7572 74.5605 15.1713C74.5605 14.6013 74.6741 14.121 74.9013 13.7304C75.1285 13.3398 75.4394 13.0468 75.834 12.8515C76.2326 12.6522 76.687 12.5526 77.1972 12.5526C77.6476 12.5526 78.0561 12.6303 78.4228 12.7858C78.7935 12.9372 79.1124 13.1804 79.3794 13.5152C79.6465 13.85 79.8517 14.2884 79.9952 14.8305C80.1427 15.3686 80.2165 16.0263 80.2165 16.8035C80.2165 17.9156 80.073 18.8284 79.786 19.5418C79.503 20.2513 79.0885 20.7774 78.5424 21.1202C77.9963 21.459 77.3307 21.6284 76.5455 21.6284ZM83.4585 21.6284C83.1834 21.6284 82.9104 21.6065 82.6394 21.5627C82.3683 21.5228 82.1172 21.457 81.886 21.3654V20.5642C82.1172 20.6559 82.3683 20.7236 82.6394 20.7675C82.9104 20.8113 83.1735 20.8332 83.4286 20.8332C84.0344 20.8332 84.5406 20.7037 84.9472 20.4446C85.3537 20.1816 85.6587 19.771 85.8619 19.213C86.0692 18.655 86.1728 17.9295 86.1728 17.0367V16.6959C86.1728 16.0502 86.123 15.5101 86.0234 15.0757C85.9277 14.6412 85.7882 14.2964 85.6049 14.0413C85.4255 13.7822 85.2083 13.5969 84.9532 13.4853C84.7021 13.3737 84.4191 13.3179 84.1042 13.3179C83.7733 13.3179 83.4784 13.3817 83.2193 13.5092C82.9642 13.6368 82.7609 13.836 82.6095 14.1071C82.462 14.3741 82.3883 14.7189 82.3883 15.1414C82.3883 15.5719 82.466 15.9246 82.6214 16.1997C82.7809 16.4707 83.0041 16.67 83.2911 16.7976C83.578 16.9251 83.9148 16.9889 84.3015 16.9889C84.5406 16.9889 84.7858 16.959 85.0369 16.8992C85.292 16.8394 85.5351 16.7457 85.7663 16.6182C86.0014 16.4867 86.2047 16.3153 86.3761 16.104V16.9171C86.133 17.1762 85.8081 17.3815 85.4016 17.5329C84.999 17.6804 84.5825 17.7542 84.152 17.7542C83.6299 17.7542 83.1675 17.6605 82.7649 17.4732C82.3623 17.2858 82.0455 17.0028 81.8143 16.6242C81.5871 16.2415 81.4735 15.7572 81.4735 15.1713C81.4735 14.6013 81.5871 14.121 81.8143 13.7304C82.0415 13.3398 82.3524 13.0468 82.747 12.8515C83.1456 12.6522 83.6 12.5526 84.1102 12.5526C84.5606 12.5526 84.9691 12.6303 85.3358 12.7858C85.7065 12.9372 86.0254 13.1804 86.2924 13.5152C86.5595 13.85 86.7647 14.2884 86.9082 14.8305C87.0557 15.3686 87.1295 16.0263 87.1295 16.8035C87.1295 17.9156 86.986 18.8284 86.699 19.5418C86.416 20.2513 86.0015 20.7774 85.4554 21.1202C84.9093 21.459 84.2437 21.6284 83.4585 21.6284ZM90.3715 21.6284C90.0964 21.6284 89.8234 21.6065 89.5524 21.5627C89.2813 21.5228 89.0302 21.457 88.799 21.3654V20.5642C89.0302 20.6559 89.2813 20.7236 89.5524 20.7675C89.8234 20.8113 90.0865 20.8332 90.3416 20.8332C90.9474 20.8332 91.4536 20.7037 91.8602 20.4446C92.2667 20.1816 92.5717 19.771 92.7749 19.213C92.9822 18.655 93.0858 17.9295 93.0858 17.0367V16.6959C93.0858 16.0502 93.036 15.5101 92.9364 15.0757C92.8407 14.6412 92.7012 14.2964 92.5179 14.0413C92.3385 13.7822 92.1213 13.5969 91.8662 13.4853C91.6151 13.3737 91.3321 13.3179 91.0172 13.3179C90.6863 13.3179 90.3914 13.3817 90.1323 13.5092C89.8772 13.6368 89.6739 13.836 89.5225 14.1071C89.375 14.3741 89.3013 14.7189 89.3013 15.1414C89.3013 15.5719 89.379 15.9246 89.5344 16.1997C89.6939 16.4707 89.9171 16.67 90.2041 16.7976C90.491 16.9251 90.8278 16.9889 91.2145 16.9889C91.4536 16.9889 91.6988 16.959 91.9499 16.8992C92.205 16.8394 92.4481 16.7457 92.6793 16.6182C92.9144 16.4867 93.1177 16.3153 93.2891 16.104V16.9171C93.046 17.1762 92.7211 17.3815 92.3146 17.5329C91.912 17.6804 91.4955 17.7542 91.065 17.7542C90.5429 17.7542 90.0805 17.6605 89.6779 17.4732C89.2753 17.2858 88.9585 17.0028 88.7273 16.6242C88.5001 16.2415 88.3865 15.7572 88.3865 15.1713C88.3865 14.6013 88.5001 14.121 88.7273 13.7304C88.9545 13.3398 89.2654 13.0468 89.66 12.8515C90.0586 12.6522 90.513 12.5526 91.0232 12.5526C91.4736 12.5526 91.8821 12.6303 92.2488 12.7858C92.6195 12.9372 92.9384 13.1804 93.2054 13.5152C93.4725 13.85 93.6777 14.2884 93.8212 14.8305C93.9687 15.3686 94.0424 16.0263 94.0424 16.8035C94.0424 17.9156 93.899 18.8284 93.612 19.5418C93.329 20.2513 92.9144 20.7774 92.3684 21.1202C91.8223 21.459 91.1567 21.6284 90.3715 21.6284Z" fill="#E5DFD9"/>
<path d="M67.217 17.6406H94.8735V17.9395H67.217V17.6406Z" fill="#E5DFD9"/>
<path d="M101.89 24.1455C101.176 23.2806 100.658 22.3299 100.335 21.2936C100.012 20.2573 99.8511 19.1592 99.8511 17.9993C99.8511 16.8394 100.012 15.7413 100.335 14.705C100.658 13.6647 101.176 12.714 101.89 11.8531H103.217C102.727 12.4669 102.328 13.1026 102.021 13.7603C101.714 14.414 101.489 15.0936 101.346 15.7991C101.206 16.5046 101.137 17.238 101.137 17.9993C101.137 18.7606 101.206 19.494 101.346 20.1995C101.489 20.905 101.714 21.5846 102.021 22.2383C102.328 22.8959 102.727 23.5317 103.217 24.1455H101.89ZM106.217 21.6284C105.815 21.6284 105.418 21.5985 105.027 21.5387C104.641 21.479 104.278 21.3953 103.939 21.2876V20.2952C104.286 20.3988 104.655 20.4805 105.045 20.5403C105.436 20.6001 105.813 20.63 106.175 20.63C106.937 20.63 107.503 20.4925 107.873 20.2174C108.244 19.9424 108.429 19.5358 108.429 18.9978C108.429 18.647 108.336 18.354 108.148 18.1189C107.965 17.8837 107.654 17.7004 107.216 17.5688C106.777 17.4373 106.179 17.3516 105.422 17.3117L104.262 17.246L104.573 12.6662H109.26V13.6706H105.207L105.739 13.1385L105.482 16.7736L104.728 16.2714L105.888 16.3372C106.773 16.385 107.491 16.5126 108.041 16.7198C108.595 16.9271 108.999 17.2181 109.254 17.5927C109.514 17.9634 109.643 18.4238 109.643 18.9738C109.643 19.8348 109.352 20.4925 108.77 20.9468C108.188 21.4012 107.337 21.6284 106.217 21.6284ZM113.825 21.6284C113.215 21.6284 112.687 21.477 112.241 21.174C111.794 20.8671 111.45 20.3809 111.207 19.7152C110.967 19.0496 110.848 18.1747 110.848 17.0905C110.848 16.0064 110.967 15.1315 111.207 14.4658C111.446 13.8002 111.788 13.3159 112.235 13.013C112.681 12.7061 113.211 12.5526 113.825 12.5526C114.443 12.5526 114.973 12.7061 115.416 13.013C115.862 13.3159 116.205 13.8002 116.444 14.4658C116.687 15.1315 116.809 16.0064 116.809 17.0905C116.809 18.1747 116.687 19.0496 116.444 19.7152C116.201 20.3809 115.856 20.8671 115.41 21.174C114.967 21.477 114.439 21.6284 113.825 21.6284ZM113.825 20.5642C114.184 20.5642 114.491 20.4626 114.746 20.2593C115.005 20.052 115.204 19.6973 115.344 19.1951C115.483 18.6928 115.553 17.9953 115.553 17.1025C115.553 16.2017 115.483 15.4982 115.344 14.992C115.204 14.4857 115.005 14.131 114.746 13.9277C114.491 13.7205 114.184 13.6168 113.825 13.6168C113.47 13.6168 113.164 13.7185 112.904 13.9217C112.645 14.125 112.446 14.4798 112.307 14.986C112.167 15.4882 112.097 16.1857 112.097 17.0786C112.097 17.9794 112.167 18.6829 112.307 19.1891C112.446 19.6953 112.645 20.052 112.904 20.2593C113.164 20.4626 113.47 20.5642 113.825 20.5642ZM117.816 20.1576V19.1831L124.034 14.0234V14.9979L117.816 20.1576ZM122.282 21.6284C121.9 21.6284 121.571 21.5447 121.296 21.3773C121.025 21.2099 120.817 20.9787 120.674 20.6838C120.53 20.3848 120.459 20.0421 120.459 19.6554C120.459 19.2688 120.53 18.928 120.674 18.633C120.817 18.3341 121.025 18.1009 121.296 17.9335C121.567 17.7661 121.896 17.6824 122.282 17.6824C122.669 17.6824 122.998 17.7661 123.269 17.9335C123.54 18.1009 123.747 18.3341 123.891 18.633C124.034 18.928 124.106 19.2688 124.106 19.6554C124.106 20.0421 124.034 20.3848 123.891 20.6838C123.747 20.9787 123.54 21.2099 123.269 21.3773C122.998 21.5447 122.669 21.6284 122.282 21.6284ZM122.282 20.9349C122.605 20.9349 122.852 20.8253 123.024 20.6061C123.199 20.3828 123.287 20.068 123.287 19.6614C123.287 19.2509 123.199 18.934 123.024 18.7108C122.852 18.4876 122.605 18.376 122.282 18.376C121.967 18.376 121.72 18.4876 121.541 18.7108C121.365 18.93 121.278 19.2409 121.278 19.6435C121.278 20.054 121.365 20.3729 121.541 20.6001C121.72 20.8233 121.967 20.9349 122.282 20.9349ZM119.574 16.4986C119.187 16.4986 118.858 16.4149 118.587 16.2475C118.316 16.0801 118.109 15.8489 117.966 15.554C117.822 15.255 117.75 14.9122 117.75 14.5256C117.75 14.139 117.822 13.7982 117.966 13.5032C118.109 13.2043 118.316 12.9711 118.587 12.8037C118.858 12.6363 119.187 12.5526 119.574 12.5526C119.96 12.5526 120.289 12.6363 120.56 12.8037C120.831 12.9711 121.037 13.2043 121.176 13.5032C121.32 13.7982 121.391 14.139 121.391 14.5256C121.391 14.9122 121.32 15.255 121.176 15.554C121.037 15.8489 120.831 16.0801 120.56 16.2475C120.289 16.4149 119.96 16.4986 119.574 16.4986ZM119.574 15.8051C119.893 15.8051 120.138 15.6955 120.309 15.4762C120.485 15.253 120.572 14.9381 120.572 14.5316C120.572 14.125 120.485 13.8101 120.309 13.5869C120.138 13.3597 119.893 13.2461 119.574 13.2461C119.255 13.2461 119.008 13.3577 118.832 13.581C118.657 13.8002 118.569 14.1131 118.569 14.5196C118.569 14.9262 118.657 15.2431 118.832 15.4703C119.008 15.6935 119.255 15.8051 119.574 15.8051ZM131.835 21.6284C131.069 21.6284 130.4 21.471 129.826 21.1561C129.252 20.8372 128.805 20.343 128.486 19.6734C128.171 19.0037 128.014 18.1428 128.014 17.0905C128.014 16.0382 128.173 15.1773 128.492 14.5077C128.811 13.838 129.256 13.3458 129.826 13.0309C130.4 12.712 131.069 12.5526 131.835 12.5526C132.604 12.5526 133.275 12.712 133.849 13.0309C134.423 13.3498 134.868 13.844 135.183 14.5136C135.502 15.1793 135.661 16.0382 135.661 17.0905C135.661 18.1428 135.502 19.0037 135.183 19.6734C134.864 20.339 134.417 20.8313 133.843 21.1501C133.269 21.469 132.6 21.6284 131.835 21.6284ZM131.835 20.5702C132.349 20.5702 132.793 20.4586 133.168 20.2354C133.546 20.0082 133.837 19.6435 134.041 19.1412C134.248 18.635 134.352 17.9634 134.352 17.1264C134.352 16.2615 134.248 15.5739 134.041 15.0637C133.833 14.5495 133.54 14.1788 133.162 13.9516C132.787 13.7244 132.345 13.6108 131.835 13.6108C131.324 13.6108 130.88 13.7225 130.501 13.9457C130.127 14.1689 129.836 14.5336 129.628 15.0398C129.421 15.542 129.317 16.2136 129.317 17.0546C129.317 17.9196 129.421 18.6091 129.628 19.1233C129.836 19.6375 130.127 20.0082 130.501 20.2354C130.88 20.4586 131.324 20.5702 131.835 20.5702ZM137.548 21.5148V14.1908C137.548 13.6607 137.643 13.2143 137.835 12.8515C138.026 12.4848 138.309 12.2078 138.684 12.0205C139.062 11.8292 139.529 11.7335 140.083 11.7335C140.234 11.7335 140.386 11.7395 140.537 11.7514C140.689 11.7634 140.838 11.7813 140.985 11.8052V12.8216C140.858 12.7977 140.732 12.7818 140.609 12.7738C140.485 12.7619 140.36 12.7559 140.232 12.7559C139.742 12.7559 139.377 12.8635 139.138 13.0787C138.903 13.29 138.785 13.6407 138.785 14.131V21.5148H137.548ZM136.376 16.0203V15.0099H140.728V16.0203H136.376ZM141.611 21.5148V14.1908C141.611 13.6607 141.707 13.2143 141.898 12.8515C142.09 12.4848 142.373 12.2078 142.747 12.0205C143.126 11.8292 143.592 11.7335 144.146 11.7335C144.298 11.7335 144.449 11.7395 144.601 11.7514C144.752 11.7634 144.902 11.7813 145.049 11.8052V12.8216C144.922 12.7977 144.796 12.7818 144.673 12.7738C144.549 12.7619 144.423 12.7559 144.296 12.7559C143.806 12.7559 143.441 12.8635 143.202 13.0787C142.967 13.29 142.849 13.6407 142.849 14.131V21.5148H141.611ZM140.44 16.0203V15.0099H144.792V16.0203H140.44ZM144.715 24.1455C145.21 23.5317 145.608 22.8959 145.911 22.2383C146.218 21.5846 146.443 20.905 146.587 20.1995C146.73 19.494 146.802 18.7606 146.802 17.9993C146.802 17.238 146.73 16.5046 146.587 15.7991C146.443 15.0936 146.218 14.414 145.911 13.7603C145.608 13.1026 145.21 12.4669 144.715 11.8531H146.043C146.76 12.714 147.28 13.6647 147.603 14.705C147.926 15.7413 148.088 16.8394 148.088 17.9993C148.088 19.1592 147.926 20.2573 147.603 21.2936C147.28 22.3299 146.76 23.2806 146.043 24.1455H144.715Z" fill="#2FC14F"/>
</svg>
